<?xml version="1.0"?>
<svg xmlns="http://www.w3.org/2000/svg" height="512px" version="1.1" viewBox="-30 0 559 559.413" width="512px"><g><g id="surface1">
<path d="M 491.296875 265.207031 L 469.050781 255.640625 L 469.050781 240.429688 C 469.363281 147.070312 410.457031 63.773438 322.328125 32.964844 L 322.328125 11.527344 C 322.328125 5.164062 317.164062 0 310.804688 0 L 187.476562 0 C 181.117188 0 175.953125 5.164062 175.953125 11.527344 L 175.953125 33.078125 C 87.824219 63.886719 28.917969 147.183594 29.230469 240.542969 L 29.230469 255.871094 L 7.214844 265.207031 C 2.949219 267.007812 0.183594 271.191406 0.183594 275.8125 L 0.183594 336.324219 C 0.183594 342.683594 5.347656 347.847656 11.710938 347.847656 L 26.695312 347.847656 L 26.695312 370.902344 C 26.695312 377.261719 31.855469 382.425781 38.21875 382.425781 L 79.597656 382.425781 C 83.527344 396.855469 89.300781 410.734375 96.769531 423.6875 L 67.496094 452.964844 C 63.023438 457.457031 63.023438 464.71875 67.496094 469.214844 L 116.480469 518.199219 C 120.972656 522.671875 128.234375 522.671875 132.730469 518.199219 L 162.003906 488.925781 C 174.925781 496.394531 188.757812 502.15625 203.152344 506.097656 L 203.152344 547.476562 C 203.152344 553.835938 208.316406 559 214.679688 559 L 283.832031 559 C 290.195312 559 295.359375 553.835938 295.359375 547.476562 L 295.359375 506.097656 C 309.789062 502.167969 323.664062 496.40625 336.621094 488.925781 L 365.898438 518.199219 C 370.390625 522.671875 377.652344 522.671875 382.148438 518.199219 L 431.132812 469.214844 C 435.605469 464.71875 435.605469 457.457031 431.132812 452.964844 L 401.855469 423.6875 C 409.324219 410.734375 415.101562 396.855469 419.03125 382.425781 L 460.40625 382.425781 C 466.769531 382.425781 471.933594 377.261719 471.933594 370.902344 L 471.933594 347.847656 L 486.917969 347.847656 C 493.28125 347.847656 498.441406 342.683594 498.441406 336.324219 L 498.441406 275.8125 C 498.417969 271.15625 495.597656 266.972656 491.296875 265.207031 Z M 198.773438 23.167969 L 299.277344 23.167969 L 299.277344 215.761719 L 199.003906 215.761719 Z M 448.996094 359.375 L 410.617188 359.375 C 405.085938 359.246094 400.253906 363.074219 399.089844 368.476562 C 395.207031 386.527344 388.0625 403.710938 378 419.191406 C 375.035156 423.746094 375.671875 429.75 379.496094 433.597656 L 407.042969 461.144531 L 374.078125 493.878906 L 346.53125 466.332031 C 342.683594 462.507812 336.679688 461.871094 332.125 464.835938 C 316.644531 474.894531 299.460938 482.042969 281.410156 485.925781 C 276.003906 487.089844 272.179688 491.921875 272.304688 497.453125 L 272.304688 536.292969 L 226.203125 536.292969 L 226.203125 497.105469 C 226.332031 491.574219 222.503906 486.746094 217.097656 485.582031 C 199.050781 481.707031 181.863281 474.5625 166.386719 464.488281 C 161.832031 461.527344 155.828125 462.160156 151.976562 465.988281 L 124.429688 493.535156 L 91.8125 460.914062 L 119.359375 433.367188 C 123.1875 429.519531 123.820312 423.515625 120.859375 418.960938 C 110.703125 403.574219 103.441406 386.46875 99.421875 368.476562 C 98.253906 363.074219 93.425781 359.246094 87.894531 359.375 L 49.515625 359.375 L 49.515625 347.847656 L 154.859375 347.847656 C 161.175781 399.921875 208.511719 437.011719 260.585938 430.683594 C 303.96875 425.417969 338.164062 391.230469 343.421875 347.847656 L 448.882812 347.847656 Z M 178.371094 347.847656 L 320.253906 347.847656 C 313.914062 387.058594 276.984375 413.707031 237.777344 407.367188 C 207.1875 402.421875 183.203125 378.4375 178.257812 347.847656 C 178.257812 347.847656 178.371094 347.847656 178.371094 347.847656 Z M 475.507812 324.796875 L 23.121094 324.796875 L 23.121094 283.417969 L 45.363281 273.851562 C 49.628906 272.054688 52.394531 267.871094 52.394531 263.246094 L 52.394531 240.195312 C 52.140625 159.699219 101.148438 87.25 175.953125 57.511719 L 175.953125 227.289062 C 175.953125 233.648438 181.113281 238.8125 187.476562 238.8125 L 311.03125 238.8125 C 317.394531 238.8125 322.558594 233.648438 322.558594 227.289062 L 322.558594 57.511719 C 397.488281 87.238281 446.554688 159.828125 446.230469 240.425781 L 446.230469 263.480469 C 446.230469 268.101562 448.996094 272.285156 453.261719 274.082031 L 475.503906 283.648438 L 475.503906 324.796875 Z M 475.507812 324.796875 " data-original="#000000" class="active-path" data-old_color="#000000" fill="#E17E23"/>
</g></g> </svg>
