<?xml version="1.0"?>
<svg xmlns="http://www.w3.org/2000/svg" id="Capa_1" enable-background="new 0 0 511.998 511.998" height="512px" viewBox="0 0 511.998 511.998" width="512px" class=""><g><g><path d="m511.997 75.001v-75.001h-304.502v15h289.502v45.001h-357.115v-45.001h52.612v-15h-67.612v75.001h19.116v68.356c-5.326-.87-10.788-1.33-16.356-1.33-55.735 0-101.079 45.343-101.079 101.078v92.539l8.944 9.972h-9.728l-25.778 32.984v133.398h151.084v-15h-76.086v-16.889h-15v16.889h-44.998v-113.232l18.093-23.15h52.962l22.444 54.919h38.283l22.446-54.919h52.965l18.092 23.15v113.232h-45v-86.906h-15v86.906h-14.2v15h89.2v-62.727h256.711v-75.588h-19.115v-298.682zm-470.433 254.901v-86.797c0-47.463 38.615-86.078 86.079-86.078s86.08 38.614 86.08 86.078v86.797l-14.093 15.713h-31.645v-30.465l25.681-23.434v-71.372l-12.359 3.777c-11.598 3.543-24.696 7.544-37.003 11.483h-82.684v56.111l25.681 23.435v30.465h-31.645zm103.994-14.593h-35.831l-33.107-30.211v-34.493h70.03l1.118-.359c10.192-3.272 20.635-6.492 30.897-9.632v44.483zm-41.646 15h47.461l1.611-1.47v16.777h-50.683v-16.777zm32.798 70.226h-18.136l-16.314-39.919h50.765zm341.172-26.852h-20.685v15h39.8v45.588h-241.711v-45.588h186.911v-15h-190.754l-21.935-28.067h-9.73l8.944-9.972v-92.539c0-44.793-29.292-82.867-69.724-96.093v-72.011h318.883v298.682z" data-original="#000000" class="active-path" data-old_color="#000000" fill="#E17E23"/><path d="m273.9 340.273h45.001v-82.143h-45.001zm15-67.143h15.001v52.143h-15.001z" data-original="#000000" class="active-path" data-old_color="#000000" fill="#E17E23"/><path d="m378.899 214.968h-44.999v125.306h44.999zm-15 110.306h-14.999v-95.306h14.999z" data-original="#000000" class="active-path" data-old_color="#000000" fill="#E17E23"/><path d="m393.896 340.273h44.999v-149.285h-44.999zm15-134.285h14.999v119.285h-14.999z" data-original="#000000" class="active-path" data-old_color="#000000" fill="#E17E23"/><path d="m384.425 30.001h60.521v15h-60.521z" data-original="#000000" class="active-path" data-old_color="#000000" fill="#E17E23"/><path d="m459.946 30.001h14.583v15h-14.583z" data-original="#000000" class="active-path" data-old_color="#000000" fill="#E17E23"/><path d="m222.736 114.881h69.115v15h-69.115z" data-original="#000000" class="active-path" data-old_color="#000000" fill="#E17E23"/><path d="m59.999 410.092h15v55.017h-15z" data-original="#000000" class="active-path" data-old_color="#000000" fill="#E17E23"/><path d="m120.143 463.031h15v15h-15z" data-original="#000000" class="active-path" data-old_color="#000000" fill="#E17E23"/><path d="m120.143 433.031h15v15h-15z" data-original="#000000" class="active-path" data-old_color="#000000" fill="#E17E23"/><path d="m310.013 171.829h21.321v15h-21.321z" transform="matrix(.862 -.507 .507 .862 -46.65 187.301)" data-original="#000000" class="active-path" data-old_color="#000000" fill="#E17E23"/><path d="m348.171 171.86 67.953-39.96-3.436 14.761 14.609 3.401 9.019-38.745-38.259-10.897-4.11 14.426 14.544 4.142-67.924 39.942z" data-original="#000000" class="active-path" data-old_color="#000000" fill="#E17E23"/><path d="m257.764 196.217h42.874v15h-42.874z" transform="matrix(.862 -.507 .507 .862 -64.736 169.645)" data-original="#000000" class="active-path" data-old_color="#000000" fill="#E17E23"/><path d="m188.999 124.797v-19.796h13.042v-15h-28.042v34.796z" data-original="#000000" class="active-path" data-old_color="#000000" fill="#E17E23"/><path d="m222.736 140.767h15v15h-15z" data-original="#000000" class="active-path" data-old_color="#000000" fill="#E17E23"/><path d="m252.736 140.767h39.115v15h-39.115z" data-original="#000000" class="active-path" data-old_color="#000000" fill="#E17E23"/></g></g> </svg>
