<?xml version="1.0"?>
<svg xmlns="http://www.w3.org/2000/svg" id="Layer_3" enable-background="new 0 0 64 64" height="512px" viewBox="0 0 64 64" width="512px" class=""><g><g><path d="m32 23c-4.962 0-9 4.038-9 9s4.038 9 9 9 9-4.038 9-9-4.038-9-9-9zm0 16c-3.86 0-7-3.14-7-7s3.14-7 7-7 7 3.14 7 7-3.14 7-7 7z" data-original="#000000" class="active-path" data-old_color="#000000" fill="#E17E23"/><path d="m54 17h8c.552 0 1-.448 1-1v-8c0-.552-.448-1-1-1h-8c-.552 0-1 .448-1 1v3h-3c-.552 0-1 .448-1 1v19h-1v-1c0-.501-.371-.925-.868-.991l-2.565-.342c-.295-1.116-.74-2.185-1.328-3.192l1.576-2.06c.304-.398.267-.96-.087-1.314l-2.829-2.829c-.354-.355-.917-.392-1.314-.087l-2.06 1.576c-1.007-.587-2.076-1.032-3.192-1.328l-.342-2.565c-.066-.497-.49-.868-.991-.868h-4c-.501 0-.925.371-.991.868l-.342 2.565c-1.116.295-2.185.74-3.192 1.328l-2.06-1.576c-.398-.304-.96-.267-1.314.087l-2.829 2.829c-.354.354-.392.917-.087 1.314l1.576 2.06c-.587 1.007-1.032 2.076-1.328 3.192l-2.565.342c-.497.066-.868.49-.868.991v1h-1v-19c0-.552-.448-1-1-1h-3v-3c0-.552-.448-1-1-1h-8c-.552 0-1 .448-1 1v8c0 .552.448 1 1 1h8c.552 0 1-.448 1-1v-3h2v18h-2v-3c0-.552-.448-1-1-1h-8c-.552 0-1 .448-1 1v8c0 .552.448 1 1 1h8c.552 0 1-.448 1-1v-3h2v18h-2v-3c0-.552-.448-1-1-1h-8c-.552 0-1 .448-1 1v8c0 .552.448 1 1 1h8c.552 0 1-.448 1-1v-3h3c.552 0 1-.448 1-1v-19h1v1c0 .501.371.925.868.991l2.565.342c.295 1.116.74 2.185 1.328 3.192l-1.576 2.06c-.304.398-.267.96.087 1.314l2.829 2.829c.354.354.915.391 1.314.087l2.06-1.576c1.007.587 2.076 1.032 3.192 1.328l.342 2.565c.066.497.49.868.991.868h4c.501 0 .925-.371.991-.868l.342-2.565c1.116-.295 2.185-.74 3.192-1.328l2.06 1.576c.398.305.961.268 1.314-.087l2.829-2.829c.354-.354.392-.917.087-1.314l-1.576-2.06c.587-1.007 1.032-2.076 1.328-3.192l2.565-.342c.497-.066.868-.49.868-.991v-1h1v19c0 .552.448 1 1 1h3v3c0 .552.448 1 1 1h8c.552 0 1-.448 1-1v-8c0-.552-.448-1-1-1h-8c-.552 0-1 .448-1 1v3h-2v-18h2v3c0 .552.448 1 1 1h8c.552 0 1-.448 1-1v-8c0-.552-.448-1-1-1h-8c-.552 0-1 .448-1 1v3h-2v-18h2v3c0 .552.448 1 1 1zm1-8h6v6h-6zm-46 6h-6v-6h6zm0 20h-6v-6h6zm0 20h-6v-6h6zm37-21.875-2.38.317c-.421.056-.761.373-.847.79-.278 1.352-.811 2.632-1.582 3.803-.234.355-.217.819.041 1.157l1.463 1.913-1.59 1.59-1.913-1.463c-.338-.258-.803-.275-1.157-.041-1.171.771-2.451 1.304-3.803 1.582-.417.086-.733.426-.79.847l-.317 2.38h-2.249l-.317-2.38c-.056-.421-.373-.761-.79-.847-1.352-.278-2.632-.811-3.803-1.582-.354-.233-.818-.217-1.157.041l-1.913 1.463-1.59-1.59 1.463-1.913c.258-.338.275-.802.041-1.157-.771-1.171-1.304-2.451-1.582-3.803-.086-.417-.426-.733-.847-.79l-2.381-.317v-2.249l2.38-.317c.421-.056.761-.373.847-.79.278-1.352.811-2.632 1.582-3.803.234-.355.217-.819-.041-1.157l-1.463-1.913 1.59-1.59 1.913 1.463c.337.258.802.274 1.157.041 1.171-.771 2.451-1.304 3.803-1.582.417-.086.733-.426.79-.847l.317-2.381h2.249l.317 2.38c.056.421.373.761.79.847 1.352.278 2.632.811 3.803 1.582.356.234.82.218 1.157-.041l1.913-1.463 1.59 1.59-1.463 1.913c-.258.338-.275.802-.041 1.157.771 1.171 1.304 2.451 1.582 3.803.086.417.426.733.847.79l2.381.317zm9 15.875h6v6h-6zm0-20h6v6h-6z" data-original="#000000" class="active-path" data-old_color="#000000" fill="#E17E23"/></g></g> </svg>
