<svg id="Capa_1" enable-background="new 0 0 512 512" height="512" viewBox="0 0 512 512" width="512" xmlns="http://www.w3.org/2000/svg"><g><g><path d="m66.901 156.965c19.696 0 35.662 15.966 35.662 35.662v30.111l-20.719 20.719-30.24-30.24v-40.954c0-8.45 6.849-15.298 15.297-15.298z" fill="#d68a5a"/></g><g><g><g><g><path d="m445.099 156.965c-19.695 0-35.662 15.966-35.662 35.662v30.111l20.719 20.719 30.24-30.24v-40.954c0-8.45-6.849-15.298-15.297-15.298z" fill="#d68a5a"/><g><g><g><path d="m390.961 33.005c-52.663-23.698-94.339.981-116.762 20.738-10.429 9.189-25.968 9.189-36.397 0-22.423-19.757-64.1-44.436-116.762-20.738-94.973 42.738-64.6 201.536 121.912 289.178 8.257 3.88 17.841 3.88 26.097 0 186.512-87.642 216.884-246.44 121.912-289.178z" fill="#fc95bb"/></g><g><path d="m242.95 322.189c-6.234-2.93-12.293-5.94-18.182-9.025 187.907-84.234 224.168-239.937 138.142-288.68 8.939 1.402 18.31 4.132 28.05 8.517 94.975 42.737 64.597 201.538-121.916 289.189-8.255 3.88-17.839 3.879-26.094-.001z" fill="#fc78a8"/></g></g></g></g><g><path d="m486.672 200.43v-54.444c0-8.448-6.849-15.297-15.297-15.297-19.695 0-35.662 15.966-35.662 35.662v48.129c0 1.366-.543 2.676-1.509 3.642l-8.302 8.302 17.388 17.388z" fill="#f5a871"/></g><g><g><path d="m496.703 105.361c-19.696 0-35.662 15.966-35.662 35.662v48.129c0 1.366-.543 2.676-1.509 3.642l-25.905 25.905c-1.82 1.82-4.695 2.002-6.751.454-17.015-12.806-41.293-11.471-56.784 4.02l-65.788 65.788c-9.403 9.403-14.686 22.157-14.686 35.456v101.915l101.813-9.317v-71.57c0-7.775 3.088-15.231 8.586-20.728l106.761-106.761c3.344-3.344 5.223-7.879 5.223-12.608v-84.69c-.001-8.449-6.85-15.297-15.298-15.297z" fill="#fdd1a7"/><path d="m512 120.664v84.691c0 4.729-1.875 9.261-5.223 12.599l-106.758 106.769c-5.501 5.491-8.592 12.949-8.592 20.727v71.567l-33.615 7.376v-78.943c0-7.778 3.091-15.236 8.581-20.727l106.768-106.768c3.338-3.338 5.223-7.871 5.223-12.599v-84.691c0-3.152-.958-6.088-2.596-8.52 5.872-4.265 13.104-6.779 20.913-6.779 8.448 0 15.299 6.851 15.299 15.298z" fill="#ffbc8a"/></g><g><path d="m413.304 488.705h-128.042c-5.69 0-10.302-4.612-10.302-10.302v-52.263c0-10.341 8.383-18.725 18.725-18.725h111.196c10.341 0 18.725 8.383 18.725 18.725v52.263c0 5.69-4.613 10.302-10.302 10.302z" fill="#fb8627"/><path d="m423.61 426.14v52.261c0 5.69-4.612 10.302-10.302 10.302h-23.313v-62.563c0-10.343-8.386-18.729-18.729-18.729h33.615c10.344.001 18.729 8.386 18.729 18.729z" fill="#fb7722"/><g><g><path d="m315.38 407.415h15.453v81.292h-15.453z" fill="#f2671f"/></g><g><path d="m367.733 407.415h15.453v81.292h-15.453z" fill="#f2671f"/></g></g></g></g></g><g><g><path d="m25.328 200.43v-54.444c0-8.448 6.849-15.297 15.297-15.297 19.695 0 35.662 15.966 35.662 35.662v48.129c0 1.366.543 2.676 1.509 3.642l8.302 8.302-17.388 17.388z" fill="#f5a871"/></g><g><g><path d="m15.297 105.361c19.696 0 35.662 15.966 35.662 35.662v48.129c0 1.366.543 2.676 1.509 3.642l25.905 25.905c1.82 1.82 4.695 2.002 6.751.454 17.015-12.806 41.293-11.471 56.784 4.02l65.788 65.788c9.403 9.403 14.686 22.157 14.686 35.456v101.915l-101.813-9.317v-71.57c0-7.775-3.088-15.231-8.586-20.728l-106.76-106.761c-3.344-3.344-5.223-7.88-5.223-12.609v-84.69c0-8.448 6.849-15.296 15.297-15.296z" fill="#fdd1a7"/><path d="m222.385 324.42v101.916l-40.033-3.668v-98.248c0-13.3-5.285-26.053-14.68-35.459l-65.787-65.787c-3.235-3.235-6.851-5.851-10.704-7.84 16.359-8.499 36.994-5.893 50.726 7.84l65.787 65.787c9.406 9.406 14.691 22.16 14.691 35.459z" fill="#ffbc8a"/><g><path d="m151.643 315.533c-1.525 1.628-3.585 2.462-5.656 2.462-1.885 0-3.781-.69-5.264-2.071l-73.74-68.589c-.072-.072-.144-.134-.206-.196-8.963-8.973-8.963-23.55 0-32.523 1.257-1.257 2.545-2.472 3.863-3.647l7.737 7.726c1.648 1.659 4.183 1.957 6.171.824-2.534 1.978-4.842 4.028-6.84 6.027-2.915 2.915-2.946 7.634-.082 10.58l73.627 68.486c3.12 2.906 3.295 7.79.39 10.921z" fill="#ffbc8a"/></g><g><path d="m445.739 247.14c-.062.062-.134.124-.196.196l-73.751 68.589c-1.483 1.38-3.379 2.071-5.254 2.071-2.071 0-4.141-.834-5.666-2.462-2.905-3.132-2.73-8.015.402-10.92l73.617-68.486c2.864-2.946 2.833-7.665-.072-10.58-1.834-1.834-3.946-3.719-6.243-5.553 1.751.515 3.698.062 5.048-1.298l7.974-7.974c1.422 1.257 2.802 2.555 4.141 3.894 8.962 8.973 8.962 23.55 0 32.523z" fill="#f5a871"/></g></g><g><path d="m98.696 488.705h128.041c5.69 0 10.302-4.612 10.302-10.302v-52.263c0-10.341-8.383-18.725-18.725-18.725h-111.195c-10.341 0-18.725 8.383-18.725 18.725v52.263c0 5.69 4.613 10.302 10.302 10.302z" fill="#fb8627"/><path d="m237.034 426.13v52.271c0 5.69-4.612 10.302-10.302 10.302h-23.312v-62.563c0-10.343-8.375-18.729-18.718-18.729h33.615c10.337.001 18.717 8.381 18.717 18.719z" fill="#fb7722"/><g><g><path d="m181.168 407.415h15.453v81.292h-15.453z" fill="#f2671f"/></g><g><path d="m128.814 407.415h15.453v81.292h-15.453z" fill="#f2671f"/></g></g></g></g></g></g></g></g></svg>